<svg xmlns="http://www.w3.org/2000/svg" xmlns:xlink="http://www.w3.org/1999/xlink" version="1.1" id="Layer_1" x="0px" y="0px" width="96.568px" height="100px" viewBox="0 0 96.568 100" enable-background="new 0 0 96.568 100" xml:space="preserve">
<path d="M19.184,24.501L20.11,40.26h7.418l0.926-15.759c1.536,0,2.781-1.246,2.781-2.784v-9.003c0-1.533-1.643-3.179-3.179-3.179  h-8.476c-1.536,0-3.179,1.646-3.179,3.179v9.003C16.402,23.255,17.647,24.501,19.184,24.501z"/>
<path d="M6.562,33.151L3.706,32.29c-0.29,0.959-0.52,2.011-0.686,3.128l2.95,0.439C6.115,34.882,6.314,33.971,6.562,33.151z"/>
<path d="M9.12,28.726l-2.014-2.199c-0.818,0.749-1.532,1.66-2.123,2.712l2.598,1.462C8.018,29.926,8.536,29.262,9.12,28.726z"/>
<path d="M29.29,65.453c0-0.717-0.034-1.437-0.097-2.151l-2.971,0.266c0.056,0.627,0.085,1.256,0.085,1.889  c0,0.301-0.006,0.603-0.021,0.902l2.979,0.134C29.281,66.145,29.29,65.797,29.29,65.453z"/>
<path d="M6,38.316l-2.926,0.58c0.222,1.115,0.651,2.207,1.277,3.243l2.553-1.544C6.457,39.857,6.154,39.091,6,38.316z"/>
<polygon points="31.311,26.724 31.305,26.811 31.316,26.719 "/>
<path d="M24.677,81.026c0-0.166,0.003-0.33,0.013-0.495l-2.978-0.169c-0.012,0.22-0.018,0.442-0.018,0.666  c0,0.891,0.099,1.8,0.294,2.702l2.916-0.629C24.752,82.404,24.677,81.705,24.677,81.026z"/>
<path d="M28.893,69.678l-2.927-0.571c-0.183,0.934-0.438,1.806-0.756,2.592l2.764,1.122C28.363,71.857,28.673,70.799,28.893,69.678z  "/>
<path d="M18.252,48.693l-1.313,2.677l0.228,0.112c0.853,0.419,1.671,0.819,2.424,1.21l1.374-2.647  c-0.772-0.4-1.609-0.812-2.484-1.24L18.252,48.693z"/>
<path d="M6.442,44.752c0.714,0.706,1.521,1.384,2.467,2.069l1.75-2.414c-0.81-0.587-1.522-1.184-2.117-1.772L6.442,44.752z"/>
<path d="M11.533,48.527c0.886,0.524,1.794,1.017,2.698,1.485l1.372-2.647c-0.855-0.442-1.714-0.908-2.552-1.403L11.533,48.527z"/>
<path d="M13.393,23.881c-1.219,0.118-2.305,0.373-3.317,0.78l1.114,2.767c0.744-0.3,1.559-0.489,2.49-0.579L13.393,23.881z"/>
<path d="M28.695,60.149c-0.247-1.085-0.572-2.122-0.962-3.081l-2.763,1.124c0.329,0.811,0.605,1.693,0.818,2.624L28.695,60.149z"/>
<path d="M26.375,75.697l-2.476-1.666c-0.646,0.959-1.156,1.969-1.52,2.997l2.812,0.992C25.472,77.228,25.869,76.447,26.375,75.697z"/>
<path d="M58.288,52.915c-0.771-0.207-1.447-0.51-2.339-1.043l-1.531,2.558c1.127,0.677,2.053,1.085,3.096,1.365L58.288,52.915z"/>
<path d="M51.773,52.633l1.88-2.315c-0.678-0.549-1.27-1.166-1.812-1.887l-2.384,1.791C50.148,51.141,50.905,51.928,51.773,52.633z"/>
<path d="M63.9,53.525c-1.149-0.059-2.104-0.117-2.923-0.189l-0.265,2.971c0.851,0.075,1.842,0.137,3.036,0.198L63.9,53.525z"/>
<path d="M93.598,66.786l2.971-0.271c-0.105-1.157-0.347-2.263-0.717-3.286l-2.805,1.016C93.329,65.027,93.516,65.881,93.598,66.786z  "/>
<path d="M45.559,41.635l2.845-0.892c-0.276-0.888-0.559-1.833-0.851-2.837l-2.862,0.836C44.987,39.767,45.275,40.729,45.559,41.635z  "/>
<path d="M23.725,55.847l2.447-1.704c-0.392-0.561-0.813-1.071-1.261-1.519c-0.319-0.318-0.709-0.636-1.192-0.974l-1.707,2.443  c0.334,0.234,0.602,0.45,0.792,0.639C23.124,55.055,23.433,55.429,23.725,55.847z"/>
<path d="M25.757,85.61l-2.702,1.259c0.441,0.949,0.99,1.896,1.631,2.81l2.44-1.712C26.587,87.196,26.127,86.404,25.757,85.61z"/>
<path d="M37.302,98.961c1.059,0.353,2.111,0.616,3.126,0.782l0.485-2.941c-0.862-0.143-1.761-0.368-2.671-0.671L37.302,98.961z"/>
<path d="M69.112,83.468l0.217,2.974c0.867-0.062,1.797-0.071,2.797-0.018l0.157-2.979C71.149,83.386,70.098,83.397,69.112,83.468z"/>
<path d="M26.712,92.16c0.711,0.756,1.493,1.485,2.321,2.17l1.899-2.301c-0.734-0.605-1.425-1.249-2.051-1.913L26.712,92.16z"/>
<path d="M75.078,83.5l0.227,2.973c1.001-0.077,2.065-0.24,3.166-0.486l-0.646-2.909C76.86,83.292,75.936,83.434,75.078,83.5z"/>
<path d="M91.258,75.152c-0.349,0.465-0.743,0.926-1.173,1.373l2.152,2.064c0.512-0.532,0.984-1.086,1.405-1.647  c0.226-0.301,0.438-0.607,0.637-0.918l-2.515-1.604C91.605,74.668,91.437,74.912,91.258,75.152z"/>
<path d="M92.925,72.039l2.811,1.002c0.37-1.035,0.627-2.116,0.769-3.214l-2.957-0.382C93.432,70.332,93.224,71.205,92.925,72.039z"/>
<path d="M85.693,79.938l1.521,2.566c0.932-0.554,1.815-1.15,2.628-1.777l-1.821-2.361C87.304,78.918,86.521,79.448,85.693,79.938z"/>
<path d="M91.853,62.121l2.264-1.945c-0.752-0.872-1.625-1.515-2.601-1.911l-0.429-0.17l-1.083,2.778l0.393,0.157  C90.927,61.244,91.416,61.611,91.853,62.121z"/>
<path d="M80.544,82.307l0.965,2.822c0.981-0.336,1.963-0.728,2.916-1.165l-1.243-2.711C82.318,81.649,81.431,82.004,80.544,82.307z"/>
<path d="M40.643,27.322l-1.654,2.481c0.775,0.519,1.483,1.09,2.104,1.699l2.092-2.126C42.431,28.635,41.574,27.944,40.643,27.322z"/>
<path d="M46.706,34.998c-0.341-1.062-0.821-2.087-1.428-3.042l-2.519,1.599c0.47,0.74,0.842,1.532,1.106,2.355L46.706,34.998z"/>
<path d="M31.594,96.197c0.891,0.575,1.82,1.098,2.758,1.555l1.305-2.682c-0.831-0.405-1.655-0.87-2.449-1.381L31.594,96.197z"/>
<path d="M34.82,24.635l-0.842,2.863c0.892,0.261,1.768,0.588,2.601,0.97l1.244-2.711C36.859,25.316,35.849,24.939,34.82,24.635z"/>
<path d="M43.65,97.018L43.712,100c1.114-0.001,2.185-0.096,3.178-0.279l-0.542-2.933C45.529,96.939,44.641,97.016,43.65,97.018z"/>
<path d="M48.872,96.025l1.188,2.734c0.984-0.428,1.919-0.963,2.858-1.637L51.181,94.7C50.416,95.249,49.66,95.682,48.872,96.025z"/>
<path d="M62.837,85.017l1.238,2.712c0.804-0.367,1.661-0.661,2.548-0.874l-0.699-2.9C64.853,84.213,63.812,84.571,62.837,85.017z"/>
<path d="M57.554,88.666l2.027,2.187c0.758-0.701,1.462-1.279,2.155-1.771l-1.722-2.435C59.214,87.213,58.407,87.873,57.554,88.666z"/>
<path d="M55.231,90.977c-0.636,0.655-1.269,1.309-1.924,1.932l2.057,2.161c0.685-0.649,1.344-1.331,2.01-2.018l0.143-0.146  l-2.141-2.077L55.231,90.977z"/>
<path d="M49.337,43.504l-2.797,1.034c0.406,1.1,0.807,2.046,1.228,2.895l2.673-1.322C50.066,45.357,49.705,44.505,49.337,43.504z"/>
<polygon points="66.812,55.157 66.839,54.641 66.88,53.667 "/>
<path d="M3.708,61.863c0,2.046,1.66,3.707,3.709,3.707c2.047,0,3.708-1.661,3.708-3.707c0-2.048-1.661-3.709-3.708-3.709  C5.368,58.154,3.708,59.815,3.708,61.863"/>
<path d="M14.833,79.872v-9.004c0-1.533-1.643-3.179-3.179-3.179H3.179C1.643,67.689,0,69.334,0,70.868v9.004  c0,1.537,1.245,2.784,2.781,2.784l0.927,15.759h7.417l0.927-15.759C13.588,82.656,14.833,81.409,14.833,79.872"/>
<path d="M37.077,73.708l0.927,15.759h7.417l0.927-15.759c1.536,0,2.781-1.246,2.781-2.784v-9.003c0-1.534-1.643-3.18-3.179-3.18  h-8.476c-1.536,0-3.179,1.646-3.179,3.18v9.003C34.296,72.462,35.541,73.708,37.077,73.708z"/>
<path d="M58.958,8.182c0,2.046,1.66,3.708,3.709,3.708c2.047,0,3.709-1.662,3.709-3.708c0-2.047-1.662-3.709-3.709-3.709  C60.618,4.473,58.958,6.135,58.958,8.182"/>
<path d="M70.083,26.191v-9.004c0-1.533-1.643-3.179-3.179-3.179H58.43c-1.536,0-3.179,1.646-3.179,3.179v9.004  c0,1.537,1.244,2.784,2.781,2.784l0.926,15.759h7.418l0.926-15.759C68.838,28.975,70.083,27.728,70.083,26.191"/>
<path d="M20.11,3.709c0,2.046,1.66,3.708,3.709,3.708c2.047,0,3.709-1.662,3.709-3.708C27.528,1.662,25.866,0,23.819,0  C21.771,0,20.11,1.662,20.11,3.709"/>
<path d="M76.772,39.496c0,2.046,1.66,3.708,3.709,3.708c2.048,0,3.709-1.662,3.709-3.708c0-2.047-1.661-3.709-3.709-3.709  C78.433,35.787,76.772,37.449,76.772,39.496"/>
<path d="M38.004,52.916c0,2.047,1.66,3.708,3.709,3.708c2.047,0,3.708-1.661,3.708-3.708s-1.661-3.708-3.708-3.708  C39.664,49.208,38.004,50.869,38.004,52.916"/>
<path d="M75.847,60.289l0.926,15.759h7.418l0.927-15.759c1.536,0,2.781-1.246,2.781-2.784V48.5c0-1.533-1.643-3.179-3.18-3.179  h-8.475c-1.536,0-3.179,1.646-3.179,3.179v9.004C73.065,59.042,74.311,60.289,75.847,60.289z"/>
<path d="M70.083,53.854c-1.106-0.08-2.094-0.134-2.894-0.171l-0.298-0.016l-0.053,0.974l-0.083,2.006l0.275,0.015  c0.825,0.039,1.823,0.092,2.95,0.173l0.102-1.406V53.854z"/>
</svg>